<svg width="100" height="100" viewBox="0 0 100 100" fill="none" xmlns="http://www.w3.org/2000/svg">
<path fill-rule="evenodd" clip-rule="evenodd" d="M100 5.00005C100 2.23863 97.7614 5.72205e-05 95 5.72205e-05L19.8152 0C16.5298 0 13.655 0.476532 11.191 1.42961C8.7269 2.456 6.67352 3.81231 5.03081 5.49853C3.31965 7.25806 2.0534 9.23754 1.23205 11.4369C0.41069 13.7097 0 16.0557 0 18.4751V23.375C0 32.5567 7.44327 40 16.625 40H70L40.0001 20H95C97.7614 20 100 17.7614 100 15V5.00005ZM7.62939e-06 94.9999C7.62939e-06 97.7614 2.23858 99.9999 5 99.9999L80.1848 100C83.4702 100 86.345 99.5235 88.809 98.5704C91.2731 97.544 93.3265 96.1877 94.9692 94.5015C96.6804 92.7419 97.9466 90.7625 98.768 88.563C99.5893 86.2903 100 83.9443 100 81.5249V76.625C100 67.4433 92.5567 60 83.375 60H30L59.9999 80H5C2.23858 80 7.62939e-06 82.2386 7.62939e-06 85V94.9999Z" fill="white"/>
</svg>
