<svg width="232" height="232" viewBox="0 0 232 232" fill="none" xmlns="http://www.w3.org/2000/svg">
<circle cx="116" cy="116" r="116" fill="#6764FB"/>
<path fill-rule="evenodd" clip-rule="evenodd" d="M177.4 61.1201C177.4 57.7401 174.66 55.0001 171.28 55.0001L79.254 55C75.2327 55 71.714 55.5833 68.698 56.7498C65.682 58.0061 63.1686 59.6663 61.158 61.7302C59.0635 63.8839 57.5136 66.3067 56.5083 68.9988C55.5029 71.7806 55.0003 74.6522 55.0003 77.6135V94.2689C55.0003 99.6211 59.3391 103.96 64.6914 103.96H140.68L103.96 79.48H171.28C174.66 79.48 177.4 76.74 177.4 73.36V61.1201ZM55 171.28C55 174.66 57.74 177.4 61.12 177.4L153.146 177.4C157.168 177.4 160.686 176.816 163.702 175.65C166.718 174.394 169.232 172.733 171.242 170.67C173.337 168.516 174.887 166.093 175.892 163.401C176.897 160.619 177.4 157.748 177.4 154.786V138.131C177.4 132.779 173.061 128.44 167.709 128.44H91.72L128.44 152.92H61.12C57.74 152.92 55 155.66 55 159.04V171.28Z" fill="#161523"/>
</svg>
