<svg width="511" height="109" viewBox="0 0 511 109" fill="none" xmlns="http://www.w3.org/2000/svg">
<path fill-rule="evenodd" clip-rule="evenodd" d="M103.675 6.12247e-05H101.648L21.2018 0C17.6865 0 14.6106 0.509879 11.9741 1.52965C9.33759 2.62787 7.14052 4.07909 5.38285 5.88331C3.55195 7.76597 2.1971 9.88397 1.31827 12.2373C0.439429 14.6691 0 17.1793 0 19.7679V39.4764C0 41.3115 1.48766 42.7991 3.32279 42.7991H74.8986L42.7992 21.3996H101.648H103.672C105.508 21.3996 106.998 19.9119 106.998 18.0768V3.32284C106.998 1.48772 105.51 6.12247e-05 103.675 6.12247e-05ZM3.32333 106.998H5.3504L85.7966 106.998C89.3119 106.998 92.3878 106.488 95.0243 105.468C97.6608 104.37 99.8579 102.919 101.616 101.114C103.446 99.2318 104.801 97.1138 105.68 94.7604C106.559 92.3287 106.998 89.8185 106.998 87.2298V67.5214C106.998 65.6862 105.511 64.1986 103.676 64.1986H32.0998L64.1991 85.5982H5.3504H3.3259C1.49078 85.5982 0.000517658 87.0858 0.000517658 88.9209V103.675C0.000517658 105.51 1.48821 106.998 3.32333 106.998Z" fill="white"/>
<path d="M153.186 77.4786C153.816 96.4594 169.295 108.016 193.599 108.016C218.673 108.016 234.572 95.619 234.572 76.0078C234.572 60.5989 225.747 51.914 205.505 47.5715L193.248 44.98C181.622 42.3185 176.719 38.8165 176.719 32.5829C176.719 25.0887 183.723 20.1158 194.159 20.1158C204.735 20.1158 212.229 25.2988 212.93 33.8437H232.751C232.401 15.5632 217.622 3.44629 194.089 3.44629C171.536 3.44629 155.427 15.7733 155.427 34.404C155.427 49.1824 164.602 58.6378 183.233 62.6301L196.4 65.5017C208.587 68.2333 213.42 71.8754 213.42 78.4592C213.42 85.8834 205.716 91.2765 194.439 91.2765C183.233 91.2765 174.548 85.8134 173.567 77.4786H153.186Z" fill="white"/>
<path d="M269.107 92.6773C262.173 92.6773 257.551 89.1753 257.551 83.5721C257.551 78.249 261.893 74.8171 269.528 74.2568L285.357 73.2762V78.7393C285.357 86.864 278.002 92.6773 269.107 92.6773ZM262.384 107.456C271.769 107.456 281.084 102.763 285.287 94.7785H285.707V106.265H305.458V54.6455C305.458 39.5169 292.921 29.5712 273.66 29.5712C253.769 29.5712 241.372 39.5869 240.601 54.1553H259.302C260.282 48.6221 265.115 44.8399 272.749 44.8399C280.454 44.8399 285.357 48.9023 285.357 55.9063V60.8791L266.446 61.9997C247.745 63.1204 237.239 71.0349 237.239 84.6927C237.239 98.2104 248.095 107.456 262.384 107.456Z" fill="white"/>
<path d="M357.574 107.456C376.484 107.456 388.041 92.8874 388.041 68.7236C388.041 44.4897 376.414 29.9915 357.503 29.9915C346.787 29.9915 338.453 35.3145 334.32 44.2096H333.9V5.19729H313.448V106.265H333.62V93.3777H334.04C338.172 102.133 346.577 107.456 357.574 107.456ZM350.499 46.3808C360.655 46.3808 367.099 55.0658 367.099 68.7236C367.099 82.4514 360.725 90.9963 350.499 90.9963C340.554 90.9963 333.83 82.3114 333.83 68.7236C333.83 55.2759 340.624 46.3808 350.499 46.3808Z" fill="white"/>
<path d="M426.639 44.6999C435.744 44.6999 441.977 51.2836 442.398 60.8791H410.529C411.23 51.4937 417.673 44.6999 426.639 44.6999ZM442.678 83.2919C440.787 89.0352 435.043 92.7473 427.549 92.7473C417.113 92.7473 410.319 85.3931 410.319 74.677V73.4163H462.079V67.1827C462.079 44.3497 448.281 29.5712 426.428 29.5712C404.226 29.5712 390.218 45.1201 390.218 69.0738C390.218 93.0975 404.086 107.876 427.199 107.876C445.76 107.876 459.207 98.0003 461.448 83.2919H442.678Z" fill="white"/>
<path d="M466.917 106.265H487.369V64.3111C487.369 53.735 493.252 47.5715 503.338 47.5715C506.28 47.5715 509.081 48.0618 510.762 48.7622V30.7619C509.361 30.3417 507.33 29.9915 504.949 29.9915C496.124 29.9915 489.75 35.1744 487.089 44.6999H486.669V31.1821H466.917V106.265Z" fill="white"/>
</svg>
